# xmcd
#
# Track frame offsets: 
#        150
#        11715
#        22655
#        32717
#        45657
#        57442
#        69795
#        81672
#        92127
#        105625
#        118457
#        139622
#        152750
#        168775
#        180730
#        192565
#        205352
#        215880
#        229110
#        241292
#        254385
#        265932
#        278290
#        292280
#        305350
#        322440
#
# Disc length: 4440 seconds
#
# Revision: 3
# Processed by: cddbd v1.5.2PL0 Copyright (c) Steve Scherf et al.
# Submitted via: ExactAudioCopyFreeDBPlugin 1.0
#
DISCID=8611561a
DTITLE=Various Artist - Columbia Country Classics, Vol. 4: The Nashvi
DTITLE=lle Sound
DYEAR=1990
DGENRE=Country
TTITLE0=Johnny Cash - I Still Miss Someone
TTITLE1=Marty Robbins - Singing The Blues
TTITLE2=Billy Walker - Charlie's Shoes
TTITLE3=Marty Robbins - Devil Woman
TTITLE4=Johnny Cash - Ring Of Fire
TTITLE5=Johnny Cash and June Carter - Jackson
TTITLE6=Stonewall Jackson - A Wound Time Can't Erase
TTITLE7=Hawkshaw Hawkins - I Can't Seem To Say Goodbye
TTITLE8=Marion Worth - I Think I Know
TTITLE9=Billy Walker - Funny How Time Slips Away
TTITLE10=Ray Price - Night Live
TTITLE11=David Houston - Almost Persuaded
TTITLE12=David Houston and Tammy Wynette - My Elusive Dreams
TTITLE13=Tammy Wynette - Stand By Your Man
TTITLE14=Sandy Posey - Bring Him Home Safely To Me
TTITLE15=Charlie Rich - I Take It On Home
TTITLE16=George Jones and Tammy Wynette - Take Me
TTITLE17=Charlie Rich - Behind Closed Doors
TTITLE18=Charlie Rich - The Most Beautiful Girl
TTITLE19=Johnny Paycheck - She's All I Got
TTITLE20=George Jones - A Picture Of Me Without You
TTITLE21=Barbara Mandrell - The Midnight Oil
TTITLE22=George Jones - The Grand Tour
TTITLE23=Lynn Anderson - I Never Promised You A Rose Garden
TTITLE24=Ray Price - For The Good Times
TTITLE25=Tanya Tucker - Would You Lay With Me In A Field Of Stone
EXTD=(c)1990 Sony Music Entertainment Inc\nCOL 468122-2\nupc 509974681
EXTD=2225
EXTT0=
EXTT1=
EXTT2=
EXTT3=
EXTT4=
EXTT5=
EXTT6=
EXTT7=
EXTT8=
EXTT9=
EXTT10=
EXTT11=
EXTT12=
EXTT13=
EXTT14=
EXTT15=
EXTT16=
EXTT17=
EXTT18=
EXTT19=
EXTT20=
EXTT21=
EXTT22=
EXTT23=
EXTT24=
EXTT25=
PLAYORDER=
